<svg xmlns="http://www.w3.org/2000/svg" viewBox="0 0 24 24" fill="white">
    <path d="M19.14 12.94c.04-.3.06-.61.06-.94 0-.32-.02-.64-.06-.94l2.03-1.58a.5.5 0 0 0 .12-.65l-2-3.46a.5.5 0 0 0-.61-.22l-2.39.96c-.5-.38-1.03-.7-1.59-.94l-.36-2.54a.5.5 0 0 0-.5-.42h-4a.5.5 0 0 0-.5.42l-.36 2.54c-.56.24-1.09.56-1.59.94l-2.39-.96a.5.5 0 0 0-.61.22l-2 3.46a.5.5 0 0 0 .12.65l2.03 1.58c-.04.3-.06.62-.06.94s.02.64.06.94l-2.03 1.58a.5.5 0 0 0-.12.65l2 3.46a.5.5 0 0 0 .61.22l2.39-.96c.5.38 1.03.7 1.59.94l.36 2.54a.5.5 0 0 0 .5.42h4a.5.5 0 0 0 .5-.42l.36-2.54c.56-.24 1.09-.56 1.59-.94l2.39.96a.5.5 0 0 0 .61-.22l2-3.46a.5.5 0 0 0-.12-.65l-2.03-1.58zM12 15.5c-1.93 0-3.5-1.57-3.5-3.5s1.57-3.5 3.5-3.5 3.5 1.57 3.5 3.5-1.57 3.5-3.5 3.5z"/>
</svg>